<svg width="289" height="92" viewBox="0 0 289 92" fill="none" xmlns="http://www.w3.org/2000/svg">
<path d="M1.8986 91.1331C2.94716 91.1331 3.79719 90.2831 3.79719 89.2345C3.79719 88.186 2.94716 87.3359 1.8986 87.3359C0.850031 87.3359 0 88.186 0 89.2345C0 90.2831 0.850031 91.1331 1.8986 91.1331Z" fill="white"/>
<path d="M1.8986 69.2972C2.94716 69.2972 3.79719 68.4472 3.79719 67.3986C3.79719 66.35 2.94716 65.5 1.8986 65.5C0.850031 65.5 0 66.35 0 67.3986C0 68.4472 0.850031 69.2972 1.8986 69.2972Z" fill="white"/>
<path d="M1.8986 47.4652C2.94716 47.4652 3.79719 46.6151 3.79719 45.5666C3.79719 44.518 2.94716 43.668 1.8986 43.668C0.850031 43.668 0 44.518 0 45.5666C0 46.6151 0.850031 47.4652 1.8986 47.4652Z" fill="white"/>
<path d="M1.8986 25.6292C2.94716 25.6292 3.79719 24.7792 3.79719 23.7306C3.79719 22.6821 2.94716 21.832 1.8986 21.832C0.850031 21.832 0 22.6821 0 23.7306C0 24.7792 0.850031 25.6292 1.8986 25.6292Z" fill="white"/>
<path d="M1.8986 3.79719C2.94716 3.79719 3.79719 2.94716 3.79719 1.8986C3.79719 0.850031 2.94716 0 1.8986 0C0.850031 0 0 0.850031 0 1.8986C0 2.94716 0.850031 3.79719 1.8986 3.79719Z" fill="white"/>
<path d="M25.633 91.1331C26.6815 91.1331 27.5316 90.2831 27.5316 89.2345C27.5316 88.186 26.6815 87.3359 25.633 87.3359C24.5844 87.3359 23.7344 88.186 23.7344 89.2345C23.7344 90.2831 24.5844 91.1331 25.633 91.1331Z" fill="white"/>
<path d="M25.633 69.2972C26.6815 69.2972 27.5316 68.4472 27.5316 67.3986C27.5316 66.35 26.6815 65.5 25.633 65.5C24.5844 65.5 23.7344 66.35 23.7344 67.3986C23.7344 68.4472 24.5844 69.2972 25.633 69.2972Z" fill="white"/>
<path d="M25.633 47.4652C26.6815 47.4652 27.5316 46.6151 27.5316 45.5666C27.5316 44.518 26.6815 43.668 25.633 43.668C24.5844 43.668 23.7344 44.518 23.7344 45.5666C23.7344 46.6151 24.5844 47.4652 25.633 47.4652Z" fill="white"/>
<path d="M25.633 25.6292C26.6815 25.6292 27.5316 24.7792 27.5316 23.7306C27.5316 22.6821 26.6815 21.832 25.633 21.832C24.5844 21.832 23.7344 22.6821 23.7344 23.7306C23.7344 24.7792 24.5844 25.6292 25.633 25.6292Z" fill="white"/>
<path d="M25.633 3.79719C26.6815 3.79719 27.5316 2.94716 27.5316 1.8986C27.5316 0.850031 26.6815 0 25.633 0C24.5844 0 23.7344 0.850031 23.7344 1.8986C23.7344 2.94716 24.5844 3.79719 25.633 3.79719Z" fill="white"/>
<path d="M49.3634 91.1331C50.412 91.1331 51.262 90.2831 51.262 89.2345C51.262 88.186 50.412 87.3359 49.3634 87.3359C48.3149 87.3359 47.4648 88.186 47.4648 89.2345C47.4648 90.2831 48.3149 91.1331 49.3634 91.1331Z" fill="white"/>
<path d="M49.3634 69.2972C50.412 69.2972 51.262 68.4472 51.262 67.3986C51.262 66.35 50.412 65.5 49.3634 65.5C48.3149 65.5 47.4648 66.35 47.4648 67.3986C47.4648 68.4472 48.3149 69.2972 49.3634 69.2972Z" fill="white"/>
<path d="M49.3634 47.4652C50.412 47.4652 51.262 46.6151 51.262 45.5666C51.262 44.518 50.412 43.668 49.3634 43.668C48.3149 43.668 47.4648 44.518 47.4648 45.5666C47.4648 46.6151 48.3149 47.4652 49.3634 47.4652Z" fill="white"/>
<path d="M49.3634 25.6292C50.412 25.6292 51.262 24.7792 51.262 23.7306C51.262 22.6821 50.412 21.832 49.3634 21.832C48.3149 21.832 47.4648 22.6821 47.4648 23.7306C47.4648 24.7792 48.3149 25.6292 49.3634 25.6292Z" fill="white"/>
<path d="M49.3634 3.79719C50.412 3.79719 51.262 2.94716 51.262 1.8986C51.262 0.850031 50.412 0 49.3634 0C48.3149 0 47.4648 0.850031 47.4648 1.8986C47.4648 2.94716 48.3149 3.79719 49.3634 3.79719Z" fill="white"/>
<path d="M73.0978 91.1331C74.1464 91.1331 74.9964 90.2831 74.9964 89.2345C74.9964 88.186 74.1464 87.3359 73.0978 87.3359C72.0492 87.3359 71.1992 88.186 71.1992 89.2345C71.1992 90.2831 72.0492 91.1331 73.0978 91.1331Z" fill="white"/>
<path d="M73.0978 69.2972C74.1464 69.2972 74.9964 68.4472 74.9964 67.3986C74.9964 66.35 74.1464 65.5 73.0978 65.5C72.0492 65.5 71.1992 66.35 71.1992 67.3986C71.1992 68.4472 72.0492 69.2972 73.0978 69.2972Z" fill="white"/>
<path d="M73.0978 47.4652C74.1464 47.4652 74.9964 46.6151 74.9964 45.5666C74.9964 44.518 74.1464 43.668 73.0978 43.668C72.0492 43.668 71.1992 44.518 71.1992 45.5666C71.1992 46.6151 72.0492 47.4652 73.0978 47.4652Z" fill="white"/>
<path d="M73.0978 25.6292C74.1464 25.6292 74.9964 24.7792 74.9964 23.7306C74.9964 22.6821 74.1464 21.832 73.0978 21.832C72.0492 21.832 71.1992 22.6821 71.1992 23.7306C71.1992 24.7792 72.0492 25.6292 73.0978 25.6292Z" fill="white"/>
<path d="M73.0978 3.79719C74.1464 3.79719 74.9964 2.94716 74.9964 1.8986C74.9964 0.850031 74.1464 0 73.0978 0C72.0492 0 71.1992 0.850031 71.1992 1.8986C71.1992 2.94716 72.0492 3.79719 73.0978 3.79719Z" fill="white"/>
<path d="M96.8283 91.1331C97.8769 91.1331 98.7269 90.2831 98.7269 89.2345C98.7269 88.186 97.8769 87.3359 96.8283 87.3359C95.7797 87.3359 94.9297 88.186 94.9297 89.2345C94.9297 90.2831 95.7797 91.1331 96.8283 91.1331Z" fill="white"/>
<path d="M96.8283 69.2972C97.8769 69.2972 98.7269 68.4472 98.7269 67.3986C98.7269 66.35 97.8769 65.5 96.8283 65.5C95.7797 65.5 94.9297 66.35 94.9297 67.3986C94.9297 68.4472 95.7797 69.2972 96.8283 69.2972Z" fill="white"/>
<path d="M96.8283 47.4652C97.8769 47.4652 98.7269 46.6151 98.7269 45.5666C98.7269 44.518 97.8769 43.668 96.8283 43.668C95.7797 43.668 94.9297 44.518 94.9297 45.5666C94.9297 46.6151 95.7797 47.4652 96.8283 47.4652Z" fill="white"/>
<path d="M96.8283 25.6292C97.8769 25.6292 98.7269 24.7792 98.7269 23.7306C98.7269 22.6821 97.8769 21.832 96.8283 21.832C95.7797 21.832 94.9297 22.6821 94.9297 23.7306C94.9297 24.7792 95.7797 25.6292 96.8283 25.6292Z" fill="white"/>
<path d="M96.8283 3.79719C97.8769 3.79719 98.7269 2.94716 98.7269 1.8986C98.7269 0.850031 97.8769 0 96.8283 0C95.7797 0 94.9297 0.850031 94.9297 1.8986C94.9297 2.94716 95.7797 3.79719 96.8283 3.79719Z" fill="white"/>
<path d="M120.563 91.1331C121.611 91.1331 122.461 90.2831 122.461 89.2345C122.461 88.186 121.611 87.3359 120.563 87.3359C119.514 87.3359 118.664 88.186 118.664 89.2345C118.664 90.2831 119.514 91.1331 120.563 91.1331Z" fill="white"/>
<path d="M120.563 69.2972C121.611 69.2972 122.461 68.4472 122.461 67.3986C122.461 66.35 121.611 65.5 120.563 65.5C119.514 65.5 118.664 66.35 118.664 67.3986C118.664 68.4472 119.514 69.2972 120.563 69.2972Z" fill="white"/>
<path d="M120.563 47.4652C121.611 47.4652 122.461 46.6151 122.461 45.5666C122.461 44.518 121.611 43.668 120.563 43.668C119.514 43.668 118.664 44.518 118.664 45.5666C118.664 46.6151 119.514 47.4652 120.563 47.4652Z" fill="white"/>
<path d="M120.563 25.6292C121.611 25.6292 122.461 24.7792 122.461 23.7306C122.461 22.6821 121.611 21.832 120.563 21.832C119.514 21.832 118.664 22.6821 118.664 23.7306C118.664 24.7792 119.514 25.6292 120.563 25.6292Z" fill="white"/>
<path d="M120.563 3.79719C121.611 3.79719 122.461 2.94716 122.461 1.8986C122.461 0.850031 121.611 0 120.563 0C119.514 0 118.664 0.850031 118.664 1.8986C118.664 2.94716 119.514 3.79719 120.563 3.79719Z" fill="white"/>
<path d="M144.293 91.1331C145.342 91.1331 146.192 90.2831 146.192 89.2345C146.192 88.186 145.342 87.3359 144.293 87.3359C143.245 87.3359 142.395 88.186 142.395 89.2345C142.395 90.2831 143.245 91.1331 144.293 91.1331Z" fill="white"/>
<path d="M144.293 69.2972C145.342 69.2972 146.192 68.4472 146.192 67.3986C146.192 66.35 145.342 65.5 144.293 65.5C143.245 65.5 142.395 66.35 142.395 67.3986C142.395 68.4472 143.245 69.2972 144.293 69.2972Z" fill="white"/>
<path d="M144.293 47.4652C145.342 47.4652 146.192 46.6151 146.192 45.5666C146.192 44.518 145.342 43.668 144.293 43.668C143.245 43.668 142.395 44.518 142.395 45.5666C142.395 46.6151 143.245 47.4652 144.293 47.4652Z" fill="white"/>
<path d="M144.293 25.6292C145.342 25.6292 146.192 24.7792 146.192 23.7306C146.192 22.6821 145.342 21.832 144.293 21.832C143.245 21.832 142.395 22.6821 142.395 23.7306C142.395 24.7792 143.245 25.6292 144.293 25.6292Z" fill="white"/>
<path d="M144.293 3.79719C145.342 3.79719 146.192 2.94716 146.192 1.8986C146.192 0.850031 145.342 0 144.293 0C143.245 0 142.395 0.850031 142.395 1.8986C142.395 2.94716 143.245 3.79719 144.293 3.79719Z" fill="white"/>
<path d="M168.028 91.1331C169.076 91.1331 169.926 90.2831 169.926 89.2345C169.926 88.186 169.076 87.3359 168.028 87.3359C166.979 87.3359 166.129 88.186 166.129 89.2345C166.129 90.2831 166.979 91.1331 168.028 91.1331Z" fill="white"/>
<path d="M168.028 69.2972C169.076 69.2972 169.926 68.4472 169.926 67.3986C169.926 66.35 169.076 65.5 168.028 65.5C166.979 65.5 166.129 66.35 166.129 67.3986C166.129 68.4472 166.979 69.2972 168.028 69.2972Z" fill="white"/>
<path d="M168.028 47.4652C169.076 47.4652 169.926 46.6151 169.926 45.5666C169.926 44.518 169.076 43.668 168.028 43.668C166.979 43.668 166.129 44.518 166.129 45.5666C166.129 46.6151 166.979 47.4652 168.028 47.4652Z" fill="white"/>
<path d="M168.028 25.6292C169.076 25.6292 169.926 24.7792 169.926 23.7306C169.926 22.6821 169.076 21.832 168.028 21.832C166.979 21.832 166.129 22.6821 166.129 23.7306C166.129 24.7792 166.979 25.6292 168.028 25.6292Z" fill="white"/>
<path d="M168.028 3.79719C169.076 3.79719 169.926 2.94716 169.926 1.8986C169.926 0.850031 169.076 0 168.028 0C166.979 0 166.129 0.850031 166.129 1.8986C166.129 2.94716 166.979 3.79719 168.028 3.79719Z" fill="white"/>
<path d="M191.758 91.1331C192.807 91.1331 193.657 90.2831 193.657 89.2345C193.657 88.186 192.807 87.3359 191.758 87.3359C190.709 87.3359 189.859 88.186 189.859 89.2345C189.859 90.2831 190.709 91.1331 191.758 91.1331Z" fill="white"/>
<path d="M191.758 69.2972C192.807 69.2972 193.657 68.4472 193.657 67.3986C193.657 66.35 192.807 65.5 191.758 65.5C190.709 65.5 189.859 66.35 189.859 67.3986C189.859 68.4472 190.709 69.2972 191.758 69.2972Z" fill="white"/>
<path d="M191.758 47.4652C192.807 47.4652 193.657 46.6151 193.657 45.5666C193.657 44.518 192.807 43.668 191.758 43.668C190.709 43.668 189.859 44.518 189.859 45.5666C189.859 46.6151 190.709 47.4652 191.758 47.4652Z" fill="white"/>
<path d="M191.758 25.6292C192.807 25.6292 193.657 24.7792 193.657 23.7306C193.657 22.6821 192.807 21.832 191.758 21.832C190.709 21.832 189.859 22.6821 189.859 23.7306C189.859 24.7792 190.709 25.6292 191.758 25.6292Z" fill="white"/>
<path d="M191.758 3.79719C192.807 3.79719 193.657 2.94716 193.657 1.8986C193.657 0.850031 192.807 0 191.758 0C190.709 0 189.859 0.850031 189.859 1.8986C189.859 2.94716 190.709 3.79719 191.758 3.79719Z" fill="white"/>
<path d="M215.492 91.1331C216.541 91.1331 217.391 90.2831 217.391 89.2345C217.391 88.186 216.541 87.3359 215.492 87.3359C214.444 87.3359 213.594 88.186 213.594 89.2345C213.594 90.2831 214.444 91.1331 215.492 91.1331Z" fill="white"/>
<path d="M215.492 69.2972C216.541 69.2972 217.391 68.4472 217.391 67.3986C217.391 66.35 216.541 65.5 215.492 65.5C214.444 65.5 213.594 66.35 213.594 67.3986C213.594 68.4472 214.444 69.2972 215.492 69.2972Z" fill="white"/>
<path d="M215.492 47.4652C216.541 47.4652 217.391 46.6151 217.391 45.5666C217.391 44.518 216.541 43.668 215.492 43.668C214.444 43.668 213.594 44.518 213.594 45.5666C213.594 46.6151 214.444 47.4652 215.492 47.4652Z" fill="white"/>
<path d="M215.492 25.6292C216.541 25.6292 217.391 24.7792 217.391 23.7306C217.391 22.6821 216.541 21.832 215.492 21.832C214.444 21.832 213.594 22.6821 213.594 23.7306C213.594 24.7792 214.444 25.6292 215.492 25.6292Z" fill="white"/>
<path d="M215.492 3.79719C216.541 3.79719 217.391 2.94716 217.391 1.8986C217.391 0.850031 216.541 0 215.492 0C214.444 0 213.594 0.850031 213.594 1.8986C213.594 2.94716 214.444 3.79719 215.492 3.79719Z" fill="white"/>
<path d="M239.223 91.1331C240.271 91.1331 241.121 90.2831 241.121 89.2345C241.121 88.186 240.271 87.3359 239.223 87.3359C238.174 87.3359 237.324 88.186 237.324 89.2345C237.324 90.2831 238.174 91.1331 239.223 91.1331Z" fill="white"/>
<path d="M239.223 69.2972C240.271 69.2972 241.121 68.4472 241.121 67.3986C241.121 66.35 240.271 65.5 239.223 65.5C238.174 65.5 237.324 66.35 237.324 67.3986C237.324 68.4472 238.174 69.2972 239.223 69.2972Z" fill="white"/>
<path d="M239.223 47.4652C240.271 47.4652 241.121 46.6151 241.121 45.5666C241.121 44.518 240.271 43.668 239.223 43.668C238.174 43.668 237.324 44.518 237.324 45.5666C237.324 46.6151 238.174 47.4652 239.223 47.4652Z" fill="white"/>
<path d="M239.223 25.6292C240.271 25.6292 241.121 24.7792 241.121 23.7306C241.121 22.6821 240.271 21.832 239.223 21.832C238.174 21.832 237.324 22.6821 237.324 23.7306C237.324 24.7792 238.174 25.6292 239.223 25.6292Z" fill="white"/>
<path d="M239.223 3.79719C240.271 3.79719 241.121 2.94716 241.121 1.8986C241.121 0.850031 240.271 0 239.223 0C238.174 0 237.324 0.850031 237.324 1.8986C237.324 2.94716 238.174 3.79719 239.223 3.79719Z" fill="white"/>
<path d="M262.957 91.1331C264.006 91.1331 264.856 90.2831 264.856 89.2345C264.856 88.186 264.006 87.3359 262.957 87.3359C261.909 87.3359 261.059 88.186 261.059 89.2345C261.059 90.2831 261.909 91.1331 262.957 91.1331Z" fill="white"/>
<path d="M262.957 69.2972C264.006 69.2972 264.856 68.4472 264.856 67.3986C264.856 66.35 264.006 65.5 262.957 65.5C261.909 65.5 261.059 66.35 261.059 67.3986C261.059 68.4472 261.909 69.2972 262.957 69.2972Z" fill="white"/>
<path d="M262.957 47.4652C264.006 47.4652 264.856 46.6151 264.856 45.5666C264.856 44.518 264.006 43.668 262.957 43.668C261.909 43.668 261.059 44.518 261.059 45.5666C261.059 46.6151 261.909 47.4652 262.957 47.4652Z" fill="white"/>
<path d="M262.957 25.6292C264.006 25.6292 264.856 24.7792 264.856 23.7306C264.856 22.6821 264.006 21.832 262.957 21.832C261.909 21.832 261.059 22.6821 261.059 23.7306C261.059 24.7792 261.909 25.6292 262.957 25.6292Z" fill="white"/>
<path d="M262.957 3.79719C264.006 3.79719 264.856 2.94716 264.856 1.8986C264.856 0.850031 264.006 0 262.957 0C261.909 0 261.059 0.850031 261.059 1.8986C261.059 2.94716 261.909 3.79719 262.957 3.79719Z" fill="white"/>
<path d="M286.688 91.1331C287.736 91.1331 288.586 90.2831 288.586 89.2345C288.586 88.186 287.736 87.3359 286.688 87.3359C285.639 87.3359 284.789 88.186 284.789 89.2345C284.789 90.2831 285.639 91.1331 286.688 91.1331Z" fill="white"/>
<path d="M286.688 69.2972C287.736 69.2972 288.586 68.4472 288.586 67.3986C288.586 66.35 287.736 65.5 286.688 65.5C285.639 65.5 284.789 66.35 284.789 67.3986C284.789 68.4472 285.639 69.2972 286.688 69.2972Z" fill="white"/>
<path d="M286.688 47.4652C287.736 47.4652 288.586 46.6151 288.586 45.5666C288.586 44.518 287.736 43.668 286.688 43.668C285.639 43.668 284.789 44.518 284.789 45.5666C284.789 46.6151 285.639 47.4652 286.688 47.4652Z" fill="white"/>
<path d="M286.688 25.6292C287.736 25.6292 288.586 24.7792 288.586 23.7306C288.586 22.6821 287.736 21.832 286.688 21.832C285.639 21.832 284.789 22.6821 284.789 23.7306C284.789 24.7792 285.639 25.6292 286.688 25.6292Z" fill="white"/>
<path d="M286.688 3.79719C287.736 3.79719 288.586 2.94716 288.586 1.8986C288.586 0.850031 287.736 0 286.688 0C285.639 0 284.789 0.850031 284.789 1.8986C284.789 2.94716 285.639 3.79719 286.688 3.79719Z" fill="white"/>
</svg>
